PathFileType	4	(X/Y/Z)	RBDS010static.trc
DataRate	CameraRate	NumFrames	NumMarkers	Units	OrigDataRate	OrigDataStartFrame	OrigNumFrames
150.000000	150.000000	4	48	mm	150.000000	56	150
Frame#	Time	L.Ankle			L.Ankle.Medial			L.ASIS			L.GTR			L.Heel.Bottom			L.Heel.Lateral			L.Heel.Top			L.HF			L.Iliac.Crest			L.Knee			L.Knee.Medial			L.MT1			L.MT2			L.MT5			L.PSIS			L.Shank.Bottom.Lateral			L.Shank.Bottom.Medial			L.Shank.Top.Lateral			L.Shank.Top.Medial			L.Thigh.Bottom.Lateral			L.Thigh.Bottom.Medial			L.Thigh.Top.Lateral			L.Thigh.Top.Medial			L.TT			R.Ankle			R.Ankle.Medial			R.ASIS			R.GTR			R.Heel.Bottom			R.Heel.Lateral			R.Heel.Top			R.HF			R.Iliac.Crest			R.Knee			R.Knee.Medial			R.MT1			R.MT2			R.MT5			R.PSIS			R.Shank.Bottom.Lateral			R.Shank.Bottom.Medial			R.Shank.Top.Lateral			R.Shank.Top.Medial			R.Thigh.Bottom.Lateral			R.Thigh.Bottom.Medial			R.Thigh.Top.Lateral			R.Thigh.Top.Medial			R.TT			
		X1	Y1	Z1	X2	Y2	Z2	X3	Y3	Z3	X4	Y4	Z4	X5	Y5	Z5	X6	Y6	Z6	X7	Y7	Z7	X8	Y8	Z8	X9	Y9	Z9	X10	Y10	Z10	X11	Y11	Z11	X12	Y12	Z12	X13	Y13	Z13	X14	Y14	Z14	X15	Y15	Z15	X16	Y16	Z16	X17	Y17	Z17	X18	Y18	Z18	X19	Y19	Z19	X20	Y20	Z20	X21	Y21	Z21	X22	Y22	Z22	X23	Y23	Z23	X24	Y24	Z24	X25	Y25	Z25	X26	Y26	Z26	X27	Y27	Z27	X28	Y28	Z28	X29	Y29	Z29	X30	Y30	Z30	X31	Y31	Z31	X32	Y32	Z32	X33	Y33	Z33	X34	Y34	Z34	X35	Y35	Z35	X36	Y36	Z36	X37	Y37	Z37	X38	Y38	Z38	X39	Y39	Z39	X40	Y40	Z40	X41	Y41	Z41	X42	Y42	Z42	X43	Y43	Z43	X44	Y44	Z44	X45	Y45	Z45	X46	Y46	Z46	X47	Y47	Z47	X48	Y48	Z48	

57	0.3733333333333334	710.5069580078125	102.1395034790039	1038.613525390625	728.398193359375	118.337646484375	1118.3828125	814.6446533203125	981.0012817382813	1090.606323242188	706.6588745117188	892.2828369140625	1043.238403320313	637.554443359375	39.72570037841797	1083.0224609375	666.5905151367188	56.43615341186523	1038.462768554688	647.3877563476563	90.35179901123047	1084.29345703125	695.84423828125	448.9572143554688	1028.99853515625	765.684814453125	1065.669067382813	1060.780639648438	692.4987182617188	512.3889770507813	1033.160034179688	716.5687866210938	495.6300048828125	1157.31787109375	852.0281372070313	56.01894378662109	1125.236083984375	864.4558715820313	69.27647399902344	1079.689575195313	829.0679321289063	50.92860412597656	1011.234802246094	647.3062133789063	1028.899291992188	1165.642456054688	684.2056274414063	171.4885406494141	1034.313232421875	656.0421142578125	170.8313140869141	1080.438842773438	670.1385498046875	249.8199310302734	1024.97021484375	641.9821166992188	250.2294921875	1071.068237304688	694.569580078125	598.10595703125	1026.0205078125	645.5818481445313	589.5941772460938	1079.031005859375	676.3119506835938	706.6664428710938	1029.877075195313	631.8554077148438	699.4563598632813	1081.458251953125	756.0858154296875	430.6729125976563	1065.744262695313	706.498046875	115.8782043457031	1402.6689453125	724.7227172851563	120.1779937744141	1319.975830078125	818.6527099609375	977.3224487304688	1321.71484375	717.1561889648438	886.6969604492188	1376.809936523438	632.5798950195313	40.60027313232422	1369.125244140625	660.9100341796875	61.60664367675781	1412.27734375	641.8237915039063	89.20638275146484	1367.432861328125	720.2764892578125	445.5841064453125	1394.305053710938	751.3511962890625	1057.92333984375	1359.84521484375	720.4488525390625	510.3668823242188	1389.5712890625	735.2630615234375	490.900634765625	1266.616333007813	842.4847412109375	57.95420837402344	1323.557739257813	859.5677490234375	73.06431579589844	1374.119750976563	824.2831420898438	50.8687629699707	1438.149169921875	649.5677490234375	1028.47119140625	1262.33837890625	697.0004272460938	188.2675018310547	1408.267578125	658.0896606445313	188.2960968017578	1374.994750976563	691.7052612304688	272.9420166015625	1411.884765625	651.6015014648438	268.7585754394531	1376.295288085938	716.732177734375	611.3505859375	1395.962158203125	662.8750610351563	603.4173583984375	1345.82080078125	700.2216796875	719.8500366210938	1392.084716796875	649.892578125	713.5322265625	1345.288452148438	780.16845703125	436.7307739257813	1357.682983398438	
58	0.38	710.5138549804688	102.1306228637695	1038.618896484375	728.3934326171875	118.3098602294922	1118.383056640625	814.6023559570313	981.0118408203125	1090.602172851563	706.6358032226563	892.2890625	1043.256469726563	637.550048828125	39.72560501098633	1083.025756835938	666.5931396484375	56.43145751953125	1038.465698242188	647.3866577148438	90.35845184326172	1084.29296875	695.833984375	448.9559020996094	1029.010864257813	765.6461791992188	1065.673217773438	1060.790649414063	692.4813232421875	512.393798828125	1033.167724609375	716.5657348632813	495.6167297363281	1157.319946289063	852.4910888671875	56.25776290893555	1124.912841796875	864.4515991210938	69.2698974609375	1079.6845703125	829.0701904296875	50.93424224853516	1011.233642578125	647.2780151367188	1028.90283203125	1165.651733398438	684.1995239257813	171.4871978759766	1034.315185546875	656.0912475585938	170.8998565673828	1080.416625976563	670.1344604492188	249.8135833740234	1024.974853515625	641.9693603515625	250.2232055664063	1071.0712890625	694.542724609375	598.107666015625	1026.029174804688	645.5609130859375	589.5972900390625	1079.03564453125	676.2799682617188	706.6738891601563	1029.886474609375	631.8334350585938	699.4630737304688	1081.460571289063	756.0714111328125	430.6761169433594	1065.7509765625	706.49169921875	115.8814544677734	1402.6689453125	724.7261352539063	120.1682662963867	1319.973266601563	818.6217041015625	977.3351440429688	1321.713134765625	717.1290893554688	886.6956787109375	1376.824462890625	632.5733642578125	40.5927734375	1369.123046875	660.9130859375	61.60897064208984	1412.276611328125	641.8192749023438	89.19667816162109	1367.426025390625	720.267822265625	445.5897827148438	1394.303588867188	751.3261108398438	1057.925048828125	1359.851196289063	720.4329833984375	510.3731994628906	1389.571533203125	735.239501953125	490.9028625488281	1266.6298828125	842.488037109375	57.95196533203125	1323.554931640625	859.579833984375	73.05760192871094	1374.119384765625	824.2837524414063	50.88181686401367	1438.163940429688	649.53759765625	1028.475952148438	1262.347412109375	697.0062255859375	188.2645721435547	1408.266723632813	658.0833129882813	188.2889709472656	1374.995849609375	691.6966552734375	272.9408874511719	1411.883056640625	651.600830078125	268.7564392089844	1376.293701171875	716.7201538085938	611.3544921875	1395.967529296875	662.8518676757813	603.4197387695313	1345.822631835938	700.2026977539063	719.8534545898438	1392.099731445313	649.8739624023438	713.5332641601563	1345.294067382813	780.1627807617188	436.7353820800781	1357.683227539063	
59	0.3866666666666667	710.5137329101563	102.1289520263672	1038.6240234375	728.4013061523438	118.3388519287109	1118.392944335938	814.5757446289063	981.0220336914063	1090.59912109375	706.6039428710938	892.2879028320313	1043.2646484375	637.5482177734375	39.72291564941406	1083.029052734375	666.5916137695313	56.42802429199219	1038.461181640625	647.383544921875	90.36127471923828	1084.290161132813	695.8152465820313	448.9510498046875	1029.011596679688	765.6005249023438	1065.673950195313	1060.795043945313	692.4603881835938	512.38671875	1033.1640625	716.5344848632813	495.6187438964844	1157.338623046875	852.0303955078125	56.013671875	1125.23388671875	864.4530029296875	69.27365112304688	1079.668212890625	829.0686645507813	50.93427658081055	1011.229675292969	647.2442626953125	1028.895874023438	1165.65478515625	684.2031860351563	171.4861297607422	1034.31689453125	656.0414428710938	170.8295288085938	1080.438354492188	670.1341552734375	249.8139343261719	1024.977905273438	641.9588623046875	250.2320556640625	1071.070190429688	694.52783203125	598.1051025390625	1026.033325195313	645.549072265625	589.5838623046875	1079.052368164063	676.2523193359375	706.6822509765625	1029.894653320313	631.818359375	699.4629516601563	1081.466430664063	756.0618896484375	430.6741333007813	1065.7412109375	706.4940185546875	115.8753280639648	1402.661865234375	724.7212524414063	120.1721267700195	1319.979248046875	818.5860595703125	977.3400268554688	1321.734619140625	717.1056518554688	886.6953125	1376.819458007813	632.5773315429688	40.59336471557617	1369.11962890625	660.91259765625	61.60207748413086	1412.275268554688	641.8184204101563	89.18848419189453	1367.419311523438	720.2532958984375	445.5857543945313	1394.307861328125	751.2978515625	1057.9345703125	1359.86572265625	720.4220581054688	510.3743286132813	1389.572265625	735.2180786132813	490.8985900878906	1266.625366210938	842.4888305664063	57.95269012451172	1323.553100585938	859.57861328125	73.05741119384766	1374.124145507813	824.2728271484375	50.87380599975586	1438.151977539063	649.5095825195313	1028.477783203125	1262.36328125	696.9951171875	188.2590789794922	1408.273315429688	658.0835571289063	188.2901763916016	1374.991333007813	691.6939697265625	272.9465942382813	1411.878173828125	651.5994262695313	268.7545166015625	1376.288818359375	716.7031860351563	611.355712890625	1395.966918945313	662.8388061523438	603.4217529296875	1345.8359375	700.1891479492188	719.8507690429688	1392.100219726563	649.8527221679688	713.5308837890625	1345.296752929688	780.1448974609375	436.738525390625	1357.677001953125	
60	0.3933333333333334	710.5066528320313	102.1337814331055	1038.612915039063	728.3973999023438	118.3159866333008	1118.388549804688	814.5338745117188	981.0230102539063	1090.604614257813	706.5852661132813	892.2927856445313	1043.262084960938	637.5488891601563	39.7249641418457	1083.023193359375	666.5787353515625	56.42708206176758	1038.456665039063	647.3818359375	90.36136627197266	1084.284301757813	695.7922973632813	448.9566650390625	1029.01025390625	765.5668334960938	1065.675537109375	1060.806030273438	692.451416015625	512.3839721679688	1033.1728515625	716.5308837890625	495.5989685058594	1157.343139648438	852.02783203125	56.00422668457031	1125.234008789063	864.4490356445313	69.26966094970703	1079.686645507813	829.0748291015625	50.92874526977539	1011.226745605469	647.2122802734375	1028.880981445313	1165.659545898438	684.196044921875	171.4767913818359	1034.31494140625	656.02880859375	170.8323822021484	1080.435180664063	670.1271362304688	249.8079681396484	1024.975341796875	641.9599609375	250.2189483642578	1071.0693359375	694.5104370117188	598.1065673828125	1026.044311523438	645.5285034179688	589.5834350585938	1079.045654296875	676.2351684570313	706.6798706054688	1029.892578125	631.7930297851563	699.4551391601563	1081.48291015625	756.043701171875	430.6677551269531	1065.755737304688	706.4926147460938	115.873908996582	1402.6630859375	724.7308959960938	120.1710662841797	1319.97314453125	818.5628662109375	977.3443603515625	1321.7314453125	717.0731811523438	886.6972045898438	1376.824829101563	632.5823364257813	40.58436584472656	1369.113891601563	660.91357421875	61.5997428894043	1412.268676757813	641.8226928710938	89.19175720214844	1367.418701171875	720.251953125	445.5774841308594	1394.314819335938	751.2586059570313	1057.937622070313	1359.864990234375	720.415771484375	510.3646240234375	1389.575439453125	735.1873779296875	490.9175720214844	1266.629028320313	842.4974365234375	57.94325637817383	1323.557006835938	859.5729370117188	73.05131530761719	1374.112426757813	824.2763061523438	50.8682975769043	1438.154052734375	649.4749145507813	1028.467041015625	1262.35986328125	696.9934692382813	188.2553100585938	1408.271728515625	658.0742797851563	188.2880859375	1374.985107421875	691.692138671875	272.9366455078125	1411.884155273438	651.5908813476563	268.749755859375	1376.287719726563	716.6882934570313	611.3545532226563	1395.974365234375	662.8204345703125	603.4181518554688	1345.837036132813	700.1676635742188	719.8538208007813	1392.103759765625	649.840087890625	713.5250244140625	1345.2978515625	780.1375732421875	436.7477722167969	1357.677978515625	
